<svg xmlns="http://www.w3.org/2000/svg" id="Layer_1" x="0" y="0" version="1.1" viewBox="0 0 409.1 90.8" xml:space="preserve"><style>.st0{fill:#fff}</style><path d="M169 73.1c-2.6 0-4.8 1.6-4.8 4.7 0 3 2.2 4.7 4.8 4.7s4.8-1.6 4.8-4.7-2.2-4.7-4.8-4.7z" class="st0"/><path d="M83.7 64.7L92.6 78l-8.9 12.8h264.4L339.2 78l8.9-13.3H83.7zm49.4 21.5h-5.7V80h-8.1v6.2h-5.7V69.3h5.7v6h8.1v-6h5.7v16.9zm35.9.5c-6.3 0-10.6-3.5-10.6-8.9s4.3-8.9 10.6-8.9 10.6 3.5 10.6 8.9-4.3 8.9-10.6 8.9zm61.7-.5H225V74.7h-.1l-5.4 11.5h-4.2l-5.4-11.5h-.1v11.5h-5.1V69.3h8.3l4.6 10h.1l4.6-10h8.3l.1 16.9zM274 73.4h-11.5v2.4h8.6v3.8h-8.6v2.6H274v4.1h-17.1V69.4H274v4zm34.6 13.2c-4.1 0-7.3-.9-10.2-2.2l1.8-3.9c2.7 1.3 5.9 2 8.8 2 2.8 0 3.7-.4 3.7-1.2 0-.6-.8-.9-4.6-1.4-5.7-.8-8.6-2-8.6-5.4 0-3.3 3.7-5.6 9.3-5.6 1.9 0 3.6.2 4.9.5 1.4.3 2.8.8 4.3 1.5l-1.8 3.8c-2.5-1-5.2-1.7-7.8-1.7-2.6 0-3.3.4-3.3 1.1 0 .6.8.9 4.6 1.4 3 .4 5.2 1 6.6 1.8 1.3.7 2 1.9 2 3.6 0 3.7-4.1 5.7-9.7 5.7zM95.8 43c.2 8-.7 10.3 7.7 11.6v1.2H82v-1.2c8.4-1.2 7.5-3.6 7.7-11.6V15.7c-.2-8 .7-10.3-7.7-11.6V2.9h21.5v1.2c-8.4 1.2-7.5 3.6-7.7 11.6V43zm77.3 0c0 8.5-.8 10.1 8.3 11.6v1.2h-22.1v-1.2c8.4-1.2 7.5-3.6 7.7-11.6V15.7c-.2-8 .7-10.3-7.7-11.6V2.9h22.1v1.2c-9.1 1.5-8.3 3-8.3 11.6v12.6h26.1V15.7c0-8.5.8-10.1-8.3-11.6V2.9H213v1.2c-8.4 1.2-7.5 3.6-7.7 11.6V43c.2 8-.7 10.3 7.7 11.6v1.2h-22.1v-1.2c9.1-1.5 8.3-3 8.3-11.6V31.6h-26.1V43zm43.2 11.5c8.4-1.2 7.5-3.6 7.7-11.6V15.7c-.2-8 .7-10.3-7.7-11.6V2.9h21.5v1.2c-8.4 1.2-7.7 3.6-7.7 11.6v25.4c0 3.9.1 10 1 11.7l7 .2c9.3-1 13.1-2.6 17.6-12.1l.8.4-4.4 14.3h-36v-1.1h.2z" class="st0"/><path d="M283.1 49.6c.5 3.5-2 4.3-4.4 5v1.2h18.6v-1.2c-5.6-1.2-5.8-4.7-7.7-9.1L273.3 0c-1.5 1.9-4 3.3-5.9 4.2.8 1.5-.1 3.3-.8 5.4l-12.2 35.5c-2.2 6.1-2.8 7.6-9 9.5v1.2h18.2v-1.2c-3.1-.5-6.3-.5-6.3-5.3 0-3.7 12.3-40.5 12.3-40.5s13.1 37.5 13.5 40.8z" class="st0"/><path d="M340.9 43.5l-.3-28.3c-.1-7.4-.9-9.5-8.8-11.1V2.9h19.5l.5 1.2c-5.8.4-8 3.3-8.1 8.7-.3 8.6-.6 27.2-.3 44.1l-.9.2c-11.2-14.7-23.6-28.2-35.4-42.4V29c0 19.2-1.4 23.2 8.7 25.4v1.2h-18.9v-1.2c9.4-1.1 7.5-8.2 7.5-25.8V17c0-7.8-.5-10.8-9.4-13V2.8h11.4l34.5 40.7zM31.3 59.8c0 12.2-.8 15 10.2 17.1v1h-27v-1c10.1-1.8 9.2-5.7 9.4-17.1V21c-.3-11.4.6-15.3-9.4-17.1v-1h27v1C30.5 6 31.3 8.9 31.3 21v38.8zM65 21.1c0-12.2.8-15-10.2-17.1V3h27v1c-10.1 1.8-9.2 5.7-9.4 17.1v38.8c.3 11.4-.6 15.3 9.4 17.1v1h-27v-1c11-2.1 10.2-5 10.2-17.1V21.1z" class="st0"/><path d="M367 5.8c17.5-.1 32.8 10 32.8 36.5 0 25.2-12.5 32.2-21.8 32.2-10 0-11-6.1-11-13.5V5.8zM350.3 4c9.2 1.8 9.3 6.1 9.5 17.5v38.3c-.2 11.4.7 15.2-9 17v1.1l23.1.2c27.8.3 35.2-21.8 35.2-37.6 0-11.5-3.7-39.6-39.2-38l-19.5.4V4h-.1zM151.2 37.5c0-4.8-.8-7 4.1-8.1v-1.2h-19.6v1.2c7.4 1 9.4 1.9 9.4 10.6v6.2c0 5 .1 6.9-6.2 6.9-13.8 0-23.6-10.6-23.6-26 0-13 7.3-22.2 19.3-22.2 8.4 0 14 4.7 15.7 13.7h.9l.3-13.5c-5.2-1.9-10.8-3-16.2-3-14.5 0-28 10.7-28 27.9 0 17 12.1 26.7 26.4 26.7 6.6 0 11.7-1.6 17.5-4.2v-15zM50.6 35.7c1.2-.2 2.4-.5 4-1.2 1.9-.7 5.9-2.9 7.1-4.5 1-1.2 1-1.5-.9-1-2.1.7-5.1.4-9.6.1-3.5-.2-7.2-.7-11.4-1.2-3.3-.5-6.1-.8-10.7-1C13.9 26.1 4.7 31 .7 36.1c-1.5 1.8-.3 1.8 1.8.7 2.4-1.3 8.8-3.1 20.3-2.5 7.5.4 11 .7 14 1.2 4 .6 9.7 1 13.8.2zm217.2-3.2c.6-.1 1.2-.3 2.1-.7 1-.4 3-1.7 3.6-2.5.5-.7.5-.8-.5-.5-1.1.4-2.6.2-4.9.1-1.8-.1-3.7-.4-5.8-.7-1.7-.3-3.1-.4-5.5-.5-7.7-.4-12.4 2.4-14.5 5.2-.8 1-.1 1 .9.4 1.2-.7 4.5-1.8 10.3-1.5 3.8.2 5.6.4 7.1.6 2.2.3 5.1.6 7.2.1z" class="st0"/></svg>